<mxfile host="app.diagrams.net" modified="2023-04-05T15:19:02.131Z" agent="Mozilla/5.0 (Windows NT 10.0; Win64; x64) AppleWebKit/537.36 (KHTML, like Gecko) Chrome/111.0.0.0 Safari/537.36" etag="7duoKXlFzT90mKTn-umL" version="21.1.1" type="github">
  <diagram id="R2lEEEUBdFMjLlhIrx00" name="Page-1">
    <mxGraphModel dx="2173" dy="770" grid="1" gridSize="10" guides="1" tooltips="1" connect="1" arrows="1" fold="1" page="1" pageScale="1" pageWidth="850" pageHeight="1100" math="0" shadow="0" extFonts="Permanent Marker^https://fonts.googleapis.com/css?family=Permanent+Marker">
      <root>
        <mxCell id="0" />
        <mxCell id="1" parent="0" />
        <mxCell id="5G5B1b0vkl-i2YvMQHN7-33" value="&lt;font style=&quot;font-size: 18px;&quot;&gt;Local&lt;/font&gt;" style="rounded=0;whiteSpace=wrap;html=1;" vertex="1" parent="1">
          <mxGeometry x="310" y="260" width="120" height="60" as="geometry" />
        </mxCell>
        <mxCell id="5G5B1b0vkl-i2YvMQHN7-34" value="&lt;font style=&quot;font-size: 18px;&quot;&gt;Hibrido&lt;/font&gt;" style="rounded=0;whiteSpace=wrap;html=1;" vertex="1" parent="1">
          <mxGeometry x="330" y="650" width="120" height="60" as="geometry" />
        </mxCell>
        <mxCell id="5G5B1b0vkl-i2YvMQHN7-35" value="&lt;font style=&quot;font-size: 18px;&quot;&gt;Restaurante&lt;/font&gt;" style="rounded=0;whiteSpace=wrap;html=1;" vertex="1" parent="1">
          <mxGeometry x="470" y="470" width="120" height="60" as="geometry" />
        </mxCell>
        <mxCell id="5G5B1b0vkl-i2YvMQHN7-36" value="&lt;font style=&quot;font-size: 18px;&quot;&gt;Delivery&lt;/font&gt;" style="rounded=0;whiteSpace=wrap;html=1;" vertex="1" parent="1">
          <mxGeometry x="170" y="470" width="120" height="60" as="geometry" />
        </mxCell>
        <mxCell id="5G5B1b0vkl-i2YvMQHN7-37" value="&lt;font style=&quot;font-size: 18px;&quot;&gt;Pizza&lt;/font&gt;" style="rounded=0;whiteSpace=wrap;html=1;" vertex="1" parent="1">
          <mxGeometry x="470" y="60" width="120" height="60" as="geometry" />
        </mxCell>
        <mxCell id="5G5B1b0vkl-i2YvMQHN7-38" value="&lt;font style=&quot;font-size: 18px;&quot;&gt;Oferta&lt;/font&gt;" style="rounded=0;whiteSpace=wrap;html=1;" vertex="1" parent="1">
          <mxGeometry x="100" y="80" width="120" height="60" as="geometry" />
        </mxCell>
        <mxCell id="5G5B1b0vkl-i2YvMQHN7-40" value="&lt;font style=&quot;font-size: 18px;&quot;&gt;Isa&lt;/font&gt;" style="triangle;whiteSpace=wrap;html=1;rotation=-90;" vertex="1" parent="1">
          <mxGeometry x="500" y="360" width="60" height="80" as="geometry" />
        </mxCell>
        <mxCell id="5G5B1b0vkl-i2YvMQHN7-41" value="&lt;font style=&quot;font-size: 18px;&quot;&gt;Isa&lt;/font&gt;" style="triangle;whiteSpace=wrap;html=1;rotation=-90;" vertex="1" parent="1">
          <mxGeometry x="210" y="350" width="60" height="80" as="geometry" />
        </mxCell>
        <mxCell id="5G5B1b0vkl-i2YvMQHN7-42" value="&lt;font style=&quot;font-size: 18px;&quot;&gt;Isa&lt;/font&gt;" style="triangle;whiteSpace=wrap;html=1;rotation=-90;" vertex="1" parent="1">
          <mxGeometry x="360" y="540" width="60" height="80" as="geometry" />
        </mxCell>
        <mxCell id="5G5B1b0vkl-i2YvMQHN7-43" value="&lt;font style=&quot;font-size: 18px;&quot;&gt;Costo fijo&lt;/font&gt;" style="ellipse;whiteSpace=wrap;html=1;" vertex="1" parent="1">
          <mxGeometry x="60" y="580" width="120" height="80" as="geometry" />
        </mxCell>
        <mxCell id="5G5B1b0vkl-i2YvMQHN7-44" value="&lt;font style=&quot;font-size: 18px;&quot;&gt;Capacidad_max&lt;/font&gt;" style="ellipse;whiteSpace=wrap;html=1;" vertex="1" parent="1">
          <mxGeometry x="580" y="590" width="120" height="80" as="geometry" />
        </mxCell>
        <mxCell id="5G5B1b0vkl-i2YvMQHN7-45" value="&lt;u&gt;&lt;b&gt;&lt;font style=&quot;font-size: 18px;&quot;&gt;Direccion&lt;/font&gt;&lt;/b&gt;&lt;/u&gt;" style="ellipse;whiteSpace=wrap;html=1;" vertex="1" parent="1">
          <mxGeometry x="80" y="230" width="120" height="80" as="geometry" />
        </mxCell>
        <mxCell id="5G5B1b0vkl-i2YvMQHN7-46" value="&lt;font style=&quot;font-size: 18px;&quot;&gt;Numero&lt;/font&gt;" style="ellipse;whiteSpace=wrap;html=1;" vertex="1" parent="1">
          <mxGeometry x="30" y="320" width="120" height="80" as="geometry" />
        </mxCell>
        <mxCell id="5G5B1b0vkl-i2YvMQHN7-47" value="&lt;font style=&quot;font-size: 18px;&quot;&gt;Vende&lt;/font&gt;" style="rhombus;whiteSpace=wrap;html=1;" vertex="1" parent="1">
          <mxGeometry x="400" y="150" width="80" height="80" as="geometry" />
        </mxCell>
        <mxCell id="5G5B1b0vkl-i2YvMQHN7-48" value="&lt;font style=&quot;font-size: 18px;&quot;&gt;aux_ofer&lt;/font&gt;" style="rhombus;whiteSpace=wrap;html=1;" vertex="1" parent="1">
          <mxGeometry x="280" y="110" width="80" height="80" as="geometry" />
        </mxCell>
        <mxCell id="5G5B1b0vkl-i2YvMQHN7-49" value="&lt;font style=&quot;font-size: 18px;&quot;&gt;&lt;b&gt;&lt;u&gt;Nombre&lt;/u&gt;&lt;/b&gt;&lt;/font&gt;" style="ellipse;whiteSpace=wrap;html=1;" vertex="1" parent="1">
          <mxGeometry x="710" width="120" height="80" as="geometry" />
        </mxCell>
        <mxCell id="5G5B1b0vkl-i2YvMQHN7-50" value="&lt;font style=&quot;font-size: 18px;&quot;&gt;&lt;b&gt;&lt;u&gt;Tamanio&lt;/u&gt;&lt;/b&gt;&lt;/font&gt;" style="ellipse;whiteSpace=wrap;html=1;" vertex="1" parent="1">
          <mxGeometry x="700" y="90" width="120" height="80" as="geometry" />
        </mxCell>
        <mxCell id="5G5B1b0vkl-i2YvMQHN7-51" value="&lt;font style=&quot;font-size: 18px;&quot;&gt;Vegetariano&lt;/font&gt;" style="ellipse;whiteSpace=wrap;html=1;" vertex="1" parent="1">
          <mxGeometry x="670" y="170" width="120" height="80" as="geometry" />
        </mxCell>
        <mxCell id="5G5B1b0vkl-i2YvMQHN7-52" value="&lt;font style=&quot;font-size: 18px;&quot;&gt;&lt;b&gt;&lt;u&gt;codigo&lt;/u&gt;&lt;/b&gt;&lt;/font&gt;" style="ellipse;whiteSpace=wrap;html=1;" vertex="1" parent="1">
          <mxGeometry x="-20" width="120" height="80" as="geometry" />
        </mxCell>
        <mxCell id="5G5B1b0vkl-i2YvMQHN7-53" value="&lt;font style=&quot;font-size: 18px;&quot;&gt;descuento&lt;/font&gt;" style="ellipse;whiteSpace=wrap;html=1;" vertex="1" parent="1">
          <mxGeometry y="150" width="120" height="80" as="geometry" />
        </mxCell>
        <mxCell id="5G5B1b0vkl-i2YvMQHN7-54" value="&lt;font style=&quot;font-size: 18px;&quot;&gt;Precio&lt;/font&gt;" style="ellipse;whiteSpace=wrap;html=1;" vertex="1" parent="1">
          <mxGeometry x="500" y="190" width="120" height="80" as="geometry" />
        </mxCell>
        <mxCell id="5G5B1b0vkl-i2YvMQHN7-55" value="" style="endArrow=none;html=1;rounded=0;entryX=0;entryY=1;entryDx=0;entryDy=0;exitX=1;exitY=0.5;exitDx=0;exitDy=0;" edge="1" parent="1" source="5G5B1b0vkl-i2YvMQHN7-41" target="5G5B1b0vkl-i2YvMQHN7-33">
          <mxGeometry width="50" height="50" relative="1" as="geometry">
            <mxPoint x="260" y="380" as="sourcePoint" />
            <mxPoint x="310" y="330" as="targetPoint" />
          </mxGeometry>
        </mxCell>
        <mxCell id="5G5B1b0vkl-i2YvMQHN7-56" value="" style="endArrow=none;html=1;rounded=0;entryX=1;entryY=1;entryDx=0;entryDy=0;exitX=1;exitY=0.5;exitDx=0;exitDy=0;" edge="1" parent="1" source="5G5B1b0vkl-i2YvMQHN7-40" target="5G5B1b0vkl-i2YvMQHN7-33">
          <mxGeometry width="50" height="50" relative="1" as="geometry">
            <mxPoint x="430" y="400" as="sourcePoint" />
            <mxPoint x="440" y="330" as="targetPoint" />
          </mxGeometry>
        </mxCell>
        <mxCell id="5G5B1b0vkl-i2YvMQHN7-57" value="" style="endArrow=none;html=1;rounded=0;entryX=1;entryY=1;entryDx=0;entryDy=0;exitX=0.5;exitY=0;exitDx=0;exitDy=0;" edge="1" parent="1" source="5G5B1b0vkl-i2YvMQHN7-42" target="5G5B1b0vkl-i2YvMQHN7-36">
          <mxGeometry width="50" height="50" relative="1" as="geometry">
            <mxPoint x="280" y="605" as="sourcePoint" />
            <mxPoint x="330" y="555" as="targetPoint" />
          </mxGeometry>
        </mxCell>
        <mxCell id="5G5B1b0vkl-i2YvMQHN7-58" value="" style="endArrow=none;html=1;rounded=0;entryX=0.391;entryY=1.024;entryDx=0;entryDy=0;entryPerimeter=0;exitX=0.5;exitY=1;exitDx=0;exitDy=0;" edge="1" parent="1" source="5G5B1b0vkl-i2YvMQHN7-42" target="5G5B1b0vkl-i2YvMQHN7-35">
          <mxGeometry width="50" height="50" relative="1" as="geometry">
            <mxPoint x="460" y="620" as="sourcePoint" />
            <mxPoint x="510" y="570" as="targetPoint" />
          </mxGeometry>
        </mxCell>
        <mxCell id="5G5B1b0vkl-i2YvMQHN7-59" value="" style="endArrow=none;html=1;rounded=0;entryX=0;entryY=0.5;entryDx=0;entryDy=0;exitX=0.5;exitY=0;exitDx=0;exitDy=0;" edge="1" parent="1" source="5G5B1b0vkl-i2YvMQHN7-34" target="5G5B1b0vkl-i2YvMQHN7-42">
          <mxGeometry width="50" height="50" relative="1" as="geometry">
            <mxPoint x="270" y="655" as="sourcePoint" />
            <mxPoint x="320" y="605" as="targetPoint" />
          </mxGeometry>
        </mxCell>
        <mxCell id="5G5B1b0vkl-i2YvMQHN7-60" value="" style="endArrow=none;html=1;rounded=0;entryX=0.5;entryY=1;entryDx=0;entryDy=0;exitX=1;exitY=0;exitDx=0;exitDy=0;" edge="1" parent="1" source="5G5B1b0vkl-i2YvMQHN7-43" target="5G5B1b0vkl-i2YvMQHN7-36">
          <mxGeometry width="50" height="50" relative="1" as="geometry">
            <mxPoint x="190" y="590" as="sourcePoint" />
            <mxPoint x="240" y="540" as="targetPoint" />
          </mxGeometry>
        </mxCell>
        <mxCell id="5G5B1b0vkl-i2YvMQHN7-61" value="" style="endArrow=none;html=1;rounded=0;entryX=1;entryY=1;entryDx=0;entryDy=0;exitX=0.5;exitY=0;exitDx=0;exitDy=0;" edge="1" parent="1" source="5G5B1b0vkl-i2YvMQHN7-44" target="5G5B1b0vkl-i2YvMQHN7-35">
          <mxGeometry width="50" height="50" relative="1" as="geometry">
            <mxPoint x="580" y="610" as="sourcePoint" />
            <mxPoint x="630" y="560" as="targetPoint" />
          </mxGeometry>
        </mxCell>
        <mxCell id="5G5B1b0vkl-i2YvMQHN7-62" value="" style="endArrow=none;html=1;rounded=0;entryX=0;entryY=0.5;entryDx=0;entryDy=0;exitX=0.5;exitY=0;exitDx=0;exitDy=0;" edge="1" parent="1" source="5G5B1b0vkl-i2YvMQHN7-35" target="5G5B1b0vkl-i2YvMQHN7-40">
          <mxGeometry width="50" height="50" relative="1" as="geometry">
            <mxPoint x="410" y="450" as="sourcePoint" />
            <mxPoint x="460" y="400" as="targetPoint" />
          </mxGeometry>
        </mxCell>
        <mxCell id="5G5B1b0vkl-i2YvMQHN7-63" value="" style="endArrow=none;html=1;rounded=0;entryX=0;entryY=0.5;entryDx=0;entryDy=0;exitX=0.5;exitY=0;exitDx=0;exitDy=0;" edge="1" parent="1" source="5G5B1b0vkl-i2YvMQHN7-36" target="5G5B1b0vkl-i2YvMQHN7-41">
          <mxGeometry width="50" height="50" relative="1" as="geometry">
            <mxPoint x="330" y="460" as="sourcePoint" />
            <mxPoint x="380" y="410" as="targetPoint" />
          </mxGeometry>
        </mxCell>
        <mxCell id="5G5B1b0vkl-i2YvMQHN7-64" value="" style="endArrow=none;html=1;rounded=0;entryX=0;entryY=0;entryDx=0;entryDy=0;exitX=1;exitY=1;exitDx=0;exitDy=0;" edge="1" parent="1" source="5G5B1b0vkl-i2YvMQHN7-37" target="5G5B1b0vkl-i2YvMQHN7-51">
          <mxGeometry width="50" height="50" relative="1" as="geometry">
            <mxPoint x="740" y="300" as="sourcePoint" />
            <mxPoint x="790" y="250" as="targetPoint" />
          </mxGeometry>
        </mxCell>
        <mxCell id="5G5B1b0vkl-i2YvMQHN7-65" value="" style="endArrow=none;html=1;rounded=0;exitX=1;exitY=1;exitDx=0;exitDy=0;entryX=0;entryY=0;entryDx=0;entryDy=0;" edge="1" parent="1" source="5G5B1b0vkl-i2YvMQHN7-37" target="5G5B1b0vkl-i2YvMQHN7-50">
          <mxGeometry width="50" height="50" relative="1" as="geometry">
            <mxPoint x="690" y="140" as="sourcePoint" />
            <mxPoint x="740" y="90" as="targetPoint" />
          </mxGeometry>
        </mxCell>
        <mxCell id="5G5B1b0vkl-i2YvMQHN7-66" value="" style="endArrow=none;html=1;rounded=0;exitX=1;exitY=0.5;exitDx=0;exitDy=0;entryX=0.034;entryY=0.679;entryDx=0;entryDy=0;entryPerimeter=0;" edge="1" parent="1" source="5G5B1b0vkl-i2YvMQHN7-37" target="5G5B1b0vkl-i2YvMQHN7-49">
          <mxGeometry width="50" height="50" relative="1" as="geometry">
            <mxPoint x="630" y="140" as="sourcePoint" />
            <mxPoint x="680" y="90" as="targetPoint" />
          </mxGeometry>
        </mxCell>
        <mxCell id="5G5B1b0vkl-i2YvMQHN7-67" value="" style="endArrow=none;html=1;rounded=0;entryX=1;entryY=0.5;entryDx=0;entryDy=0;exitX=0;exitY=0;exitDx=0;exitDy=0;" edge="1" parent="1" source="5G5B1b0vkl-i2YvMQHN7-54" target="5G5B1b0vkl-i2YvMQHN7-47">
          <mxGeometry width="50" height="50" relative="1" as="geometry">
            <mxPoint x="450" y="310" as="sourcePoint" />
            <mxPoint x="500" y="260" as="targetPoint" />
          </mxGeometry>
        </mxCell>
        <mxCell id="5G5B1b0vkl-i2YvMQHN7-70" value="" style="endArrow=none;html=1;rounded=0;entryX=0;entryY=0.5;entryDx=0;entryDy=0;exitX=1;exitY=0;exitDx=0;exitDy=0;" edge="1" parent="1" source="5G5B1b0vkl-i2YvMQHN7-48" target="5G5B1b0vkl-i2YvMQHN7-37">
          <mxGeometry width="50" height="50" relative="1" as="geometry">
            <mxPoint x="360" y="90" as="sourcePoint" />
            <mxPoint x="410" y="40" as="targetPoint" />
          </mxGeometry>
        </mxCell>
        <mxCell id="5G5B1b0vkl-i2YvMQHN7-72" value="" style="endArrow=none;html=1;rounded=0;entryX=0.5;entryY=1;entryDx=0;entryDy=0;exitX=0.25;exitY=0;exitDx=0;exitDy=0;" edge="1" parent="1" source="5G5B1b0vkl-i2YvMQHN7-33" target="5G5B1b0vkl-i2YvMQHN7-48">
          <mxGeometry width="50" height="50" relative="1" as="geometry">
            <mxPoint x="260" y="235" as="sourcePoint" />
            <mxPoint x="310" y="185" as="targetPoint" />
          </mxGeometry>
        </mxCell>
        <mxCell id="5G5B1b0vkl-i2YvMQHN7-73" value="" style="endArrow=none;html=1;rounded=0;entryX=0.25;entryY=1;entryDx=0;entryDy=0;exitX=0.951;exitY=0.232;exitDx=0;exitDy=0;exitPerimeter=0;" edge="1" parent="1" source="5G5B1b0vkl-i2YvMQHN7-53" target="5G5B1b0vkl-i2YvMQHN7-38">
          <mxGeometry width="50" height="50" relative="1" as="geometry">
            <mxPoint x="200" y="240" as="sourcePoint" />
            <mxPoint x="250" y="190" as="targetPoint" />
          </mxGeometry>
        </mxCell>
        <mxCell id="5G5B1b0vkl-i2YvMQHN7-74" value="" style="endArrow=none;html=1;rounded=0;entryX=0.25;entryY=0;entryDx=0;entryDy=0;exitX=1;exitY=1;exitDx=0;exitDy=0;" edge="1" parent="1" source="5G5B1b0vkl-i2YvMQHN7-52" target="5G5B1b0vkl-i2YvMQHN7-38">
          <mxGeometry width="50" height="50" relative="1" as="geometry">
            <mxPoint x="170" y="220" as="sourcePoint" />
            <mxPoint x="220" y="170" as="targetPoint" />
          </mxGeometry>
        </mxCell>
        <mxCell id="5G5B1b0vkl-i2YvMQHN7-75" value="" style="endArrow=none;html=1;rounded=0;entryX=0;entryY=0.5;entryDx=0;entryDy=0;exitX=1;exitY=0.5;exitDx=0;exitDy=0;" edge="1" parent="1" source="5G5B1b0vkl-i2YvMQHN7-46" target="5G5B1b0vkl-i2YvMQHN7-33">
          <mxGeometry width="50" height="50" relative="1" as="geometry">
            <mxPoint x="200" y="350" as="sourcePoint" />
            <mxPoint x="250" y="300" as="targetPoint" />
          </mxGeometry>
        </mxCell>
        <mxCell id="5G5B1b0vkl-i2YvMQHN7-76" value="" style="endArrow=none;html=1;rounded=0;entryX=0;entryY=0;entryDx=0;entryDy=0;exitX=1;exitY=0.5;exitDx=0;exitDy=0;" edge="1" parent="1" source="5G5B1b0vkl-i2YvMQHN7-45" target="5G5B1b0vkl-i2YvMQHN7-33">
          <mxGeometry width="50" height="50" relative="1" as="geometry">
            <mxPoint x="215" y="260" as="sourcePoint" />
            <mxPoint x="265" y="210" as="targetPoint" />
          </mxGeometry>
        </mxCell>
        <mxCell id="5G5B1b0vkl-i2YvMQHN7-78" value="" style="shape=link;html=1;rounded=0;entryX=0;entryY=1;entryDx=0;entryDy=0;exitX=1;exitY=0;exitDx=0;exitDy=0;" edge="1" parent="1" source="5G5B1b0vkl-i2YvMQHN7-47" target="5G5B1b0vkl-i2YvMQHN7-37">
          <mxGeometry width="100" relative="1" as="geometry">
            <mxPoint x="480" y="310" as="sourcePoint" />
            <mxPoint x="580" y="310" as="targetPoint" />
          </mxGeometry>
        </mxCell>
        <mxCell id="5G5B1b0vkl-i2YvMQHN7-79" value="" style="shape=link;html=1;rounded=0;entryX=0;entryY=1;entryDx=0;entryDy=0;exitX=0.637;exitY=-0.048;exitDx=0;exitDy=0;exitPerimeter=0;" edge="1" parent="1" source="5G5B1b0vkl-i2YvMQHN7-33" target="5G5B1b0vkl-i2YvMQHN7-47">
          <mxGeometry width="100" relative="1" as="geometry">
            <mxPoint x="360" y="270" as="sourcePoint" />
            <mxPoint x="460" y="270" as="targetPoint" />
          </mxGeometry>
        </mxCell>
        <mxCell id="5G5B1b0vkl-i2YvMQHN7-83" value="" style="shape=flexArrow;html=1;rounded=0;exitX=1;exitY=0.5;exitDx=0;exitDy=0;entryX=0;entryY=0;entryDx=0;entryDy=0;" edge="1" parent="1" source="5G5B1b0vkl-i2YvMQHN7-38" target="5G5B1b0vkl-i2YvMQHN7-48">
          <mxGeometry width="100" relative="1" as="geometry">
            <mxPoint x="280" y="90" as="sourcePoint" />
            <mxPoint x="380" y="90" as="targetPoint" />
          </mxGeometry>
        </mxCell>
      </root>
    </mxGraphModel>
  </diagram>
</mxfile>
